<svg width="20" height="20" viewBox="0 0 20 20" fill="none" xmlns="http://www.w3.org/2000/svg">
<mask id="path-1-inside-1_2030_300" fill="white">
<path fill-rule="evenodd" clip-rule="evenodd" d="M16.25 9H3.75V5C3.75 4.31 4.31 3.75 5 3.75H6.25V7.5H7.5V3.75H12.5V7.5H13.75V3.75H15C15.69 3.75 16.25 4.31 16.25 5V9ZM16.25 17.5C16.25 18.19 15.69 18.75 15 18.75H5C4.31 18.75 3.75 18.19 3.75 17.5V10.25H16.25V17.5ZM10 1.25C11.3806 1.25 12.5 1.63687 12.5 2.5H7.5C7.5 1.63687 8.61937 1.25 10 1.25ZM15 2.5H13.75C13.75 1.11937 12.0706 0 10 0C7.92937 0 6.25 1.11937 6.25 2.5H5C3.61937 2.5 2.5 3.61937 2.5 5V17.5C2.5 18.8806 3.61937 20 5 20H15C16.3806 20 17.5 18.8806 17.5 17.5V5C17.5 3.61937 16.3806 2.5 15 2.5Z"/>
</mask>
<path fill-rule="evenodd" clip-rule="evenodd" d="M16.25 9H3.75V5C3.75 4.31 4.31 3.75 5 3.75H6.25V7.5H7.5V3.75H12.5V7.5H13.75V3.75H15C15.69 3.75 16.25 4.31 16.25 5V9ZM16.25 17.5C16.25 18.19 15.69 18.75 15 18.75H5C4.31 18.75 3.75 18.19 3.75 17.5V10.25H16.25V17.5ZM10 1.25C11.3806 1.25 12.5 1.63687 12.5 2.5H7.5C7.5 1.63687 8.61937 1.25 10 1.25ZM15 2.5H13.75C13.75 1.11937 12.0706 0 10 0C7.92937 0 6.25 1.11937 6.25 2.5H5C3.61937 2.5 2.5 3.61937 2.5 5V17.5C2.5 18.8806 3.61937 20 5 20H15C16.3806 20 17.5 18.8806 17.5 17.5V5C17.5 3.61937 16.3806 2.5 15 2.5Z" fill="white"/>
<path d="M16.25 9V11H18.25V9H16.25ZM3.75 9H1.75V11H3.75V9ZM6.25 3.75H8.25V1.75H6.25V3.75ZM6.25 7.5H4.25V9.5H6.25V7.5ZM7.5 7.5V9.5H9.5V7.5H7.5ZM7.5 3.75V1.75H5.5V3.75H7.5ZM12.5 3.75H14.5V1.75H12.5V3.75ZM12.5 7.5H10.5V9.5H12.5V7.5ZM13.75 7.5V9.5H15.75V7.5H13.75ZM13.75 3.75V1.75H11.75V3.75H13.75ZM3.75 10.25V8.25H1.75V10.25H3.75ZM16.25 10.25H18.25V8.25H16.25V10.25ZM12.5 2.5V4.5H14.5V2.5H12.5ZM7.5 2.5H5.5V4.5H7.5V2.5ZM13.75 2.5H11.75V4.5H13.75V2.5ZM6.25 2.5V4.5H8.25V2.5H6.25ZM16.25 9V7H3.75V9V11H16.25V9ZM3.75 9H5.75V5H3.75H1.75V9H3.75ZM3.75 5H5.75C5.75 5.41457 5.41457 5.75 5 5.75V3.75V1.75C3.20543 1.75 1.75 3.20543 1.75 5H3.75ZM5 3.75V5.75H6.25V3.75V1.75H5V3.75ZM6.25 3.75H4.25V7.5H6.25H8.25V3.75H6.25ZM6.25 7.5V9.5H7.5V7.5V5.5H6.25V7.5ZM7.5 7.5H9.5V3.75H7.5H5.5V7.5H7.5ZM7.5 3.75V5.75H12.5V3.75V1.75H7.5V3.75ZM12.5 3.75H10.5V7.5H12.5H14.5V3.75H12.5ZM12.5 7.5V9.5H13.75V7.5V5.5H12.5V7.5ZM13.75 7.5H15.75V3.75H13.75H11.75V7.5H13.75ZM13.75 3.75V5.75H15V3.75V1.75H13.75V3.75ZM15 3.75V5.75C14.5854 5.75 14.25 5.41457 14.25 5H16.25H18.25C18.25 3.20543 16.7946 1.75 15 1.75V3.75ZM16.25 5H14.25V9H16.25H18.25V5H16.25ZM16.25 17.5H14.25C14.25 17.0854 14.5854 16.75 15 16.75V18.75V20.75C16.7946 20.75 18.25 19.2946 18.25 17.5H16.25ZM15 18.75V16.75H5V18.75V20.75H15V18.75ZM5 18.75V16.75C5.41457 16.75 5.75 17.0854 5.75 17.5H3.75H1.75C1.75 19.2946 3.20543 20.75 5 20.75V18.75ZM3.75 17.5H5.75V10.25H3.75H1.75V17.5H3.75ZM3.75 10.25V12.25H16.25V10.25V8.25H3.75V10.25ZM16.25 10.25H14.25V17.5H16.25H18.25V10.25H16.25ZM10 1.25V3.25C10.2553 3.25 10.4724 3.26814 10.6449 3.29682C10.8226 3.3264 10.9157 3.36101 10.9436 3.37363C10.9762 3.38839 10.8694 3.34899 10.7437 3.19234C10.6775 3.10981 10.6126 3.0022 10.5659 2.8716C10.5189 2.74027 10.5 2.61233 10.5 2.5H12.5H14.5C14.5 0.981904 13.4383 0.111823 12.5919 -0.270975C11.7754 -0.640212 10.8307 -0.75 10 -0.75V1.25ZM12.5 2.5V0.5H7.5V2.5V4.5H12.5V2.5ZM7.5 2.5H9.5C9.5 2.61233 9.48106 2.74027 9.43412 2.8716C9.38744 3.0022 9.32252 3.10981 9.2563 3.19234C9.13058 3.34899 9.02378 3.38839 9.05641 3.37363C9.08432 3.36101 9.17735 3.3264 9.35513 3.29682C9.52757 3.26814 9.74469 3.25 10 3.25V1.25V-0.75C9.16932 -0.75 8.22456 -0.640212 7.40812 -0.270975C6.5617 0.111823 5.5 0.981904 5.5 2.5H7.5ZM15 2.5V0.5H13.75V2.5V4.5H15V2.5ZM13.75 2.5H15.75C15.75 0.932706 14.7969 -0.241208 13.7608 -0.931864C12.7107 -1.63191 11.3752 -2 10 -2V0V2C10.6954 2 11.2349 2.19159 11.5421 2.3964C11.8634 2.61058 11.75 2.68667 11.75 2.5H13.75ZM10 0V-2C8.62481 -2 7.28928 -1.63191 6.23916 -0.931864C5.20311 -0.241208 4.25 0.932706 4.25 2.5H6.25H8.25C8.25 2.68667 8.13657 2.61058 8.45787 2.3964C8.76509 2.19159 9.30456 2 10 2V0ZM6.25 2.5V0.5H5V2.5V4.5H6.25V2.5ZM5 2.5V0.5C2.51481 0.5 0.5 2.51481 0.5 5H2.5H4.5C4.5 4.72394 4.72394 4.5 5 4.5V2.5ZM2.5 5H0.5V17.5H2.5H4.5V5H2.5ZM2.5 17.5H0.5C0.5 19.9852 2.51481 22 5 22V20V18C4.72394 18 4.5 17.7761 4.5 17.5H2.5ZM5 20V22H15V20V18H5V20ZM15 20V22C17.4852 22 19.5 19.9852 19.5 17.5H17.5H15.5C15.5 17.7761 15.2761 18 15 18V20ZM17.5 17.5H19.5V5H17.5H15.5V17.5H17.5ZM17.5 5H19.5C19.5 2.51481 17.4852 0.5 15 0.5V2.5V4.5C15.2761 4.5 15.5 4.72394 15.5 5H17.5Z" fill="white" mask="url(#path-1-inside-1_2030_300)"/>
</svg>
