<svg width="16" height="16" viewBox="0 0 16 16" fill="none" xmlns="http://www.w3.org/2000/svg">
<path d="M12.3199 8C11.7606 7.53115 11.0495 7.28228 10.3199 7.3H5.62989C5.41606 7.3054 5.20333 7.26759 5.00444 7.18885C4.80556 7.11011 4.62461 6.99204 4.47242 6.84172C4.32024 6.6914 4.19995 6.51193 4.11876 6.31403C4.03756 6.11613 3.99714 5.90389 3.99989 5.69C3.99468 5.60675 3.99468 5.52325 3.99989 5.44C4.06295 5.0578 4.26336 4.71177 4.56349 4.46688C4.86362 4.22199 5.24282 4.09509 5.62989 4.11H10.2499C10.6268 4.10967 10.9915 4.2432 11.279 4.4868C11.5666 4.73039 11.7583 5.06821 11.8199 5.44H13.3199C13.2571 4.66893 12.9064 3.94973 12.3376 3.42539C11.7688 2.90104 11.0235 2.60996 10.2499 2.61H8.66989V0.309998H7.41989V2.61H5.62989C4.85628 2.60996 4.11097 2.90104 3.54216 3.42539C2.97335 3.94973 2.62269 4.66893 2.55989 5.44C2.55491 5.52326 2.55491 5.60674 2.55989 5.69C2.55989 6.09316 2.6393 6.49237 2.79358 6.86484C2.94787 7.23731 3.174 7.57574 3.45908 7.86082C4.03481 8.43655 4.81568 8.76 5.62989 8.76H10.3699C10.582 8.75466 10.7931 8.79184 10.9907 8.86935C11.1882 8.94686 11.3682 9.06314 11.5201 9.21132C11.672 9.3595 11.7928 9.53658 11.8752 9.73215C11.9575 9.92771 12 10.1378 11.9999 10.35C12.0103 10.4631 12.0103 10.5769 11.9999 10.69C11.9205 11.0419 11.7238 11.3563 11.4422 11.5816C11.1605 11.8069 10.8106 11.9298 10.4499 11.93H5.74989C5.38919 11.9298 5.03929 11.8069 4.75763 11.5816C4.47597 11.3563 4.27929 11.0419 4.19989 10.69H2.68989C2.77583 11.4414 3.1352 12.1348 3.69951 12.6383C4.26382 13.1417 4.99364 13.42 5.74989 13.42H7.41989V15.69H8.66989V13.42H10.3699C11.1261 13.42 11.856 13.1417 12.4203 12.6383C12.9846 12.1348 13.344 11.4414 13.4299 10.69V10.35C13.4287 9.90083 13.3286 9.45744 13.1368 9.0513C12.9449 8.64516 12.666 8.28623 12.3199 8Z" fill="black"/>
</svg>
