<svg width="20" height="20" viewBox="0 0 20 20" fill="none" xmlns="http://www.w3.org/2000/svg">
<path d="M15.3333 18H2V8.66667H7.33333C8.06667 8.66667 8.66667 8.13333 8.66667 7.4V2H10.7333C12.2 2 13.3333 3.2 13.3333 4.66667V8H18V15.3333C18 16.8 16.8 18 15.3333 18ZM7.33333 16.6667H15.3333C16.0667 16.6667 16.6667 16.0667 16.6667 15.3333V9.33333H12V4.66667C12 3.93333 11.4667 3.33333 10.7333 3.33333H10V7.4C10 8.86667 8.8 10 7.33333 10V16.6667ZM3.33333 16.6667H6V10H3.33333V16.6667Z" fill="black"/>
</svg>
