<svg width="20" height="20" viewBox="0 0 20 20" fill="none" xmlns="http://www.w3.org/2000/svg">
<g clip-path="url(#clip0_2030_308)">
<path d="M3.29927 3.92027L4.90817 4.73508V5.33504H9.63231H14.357V4.73508L15.9653 3.92027C16.1277 3.81223 16.2339 3.64746 16.2589 3.46434C16.2845 3.28121 16.2259 3.09691 16.099 2.95531C16.099 2.95531 15.1987 2.07824 14.2722 1.32812C13.5971 0.78125 10.9061 0 9.63227 0C8.35786 0 5.66743 0.78125 4.99239 1.32812C4.06649 2.07824 3.16622 2.95531 3.16622 2.95531C3.03864 3.09691 2.98067 3.28125 3.00571 3.46434C3.03075 3.64742 3.13755 3.81227 3.29927 3.92027ZM8.69294 3.28371C8.96759 2.75391 8.70149 2.62758 8.70149 2.62758L8.92915 2.26441C8.92915 2.26441 9.23923 2.58914 9.63227 2.24488C10.0254 2.58914 10.3354 2.26441 10.3354 2.26441L10.5631 2.62758C10.5631 2.62758 10.2969 2.75391 10.5722 3.28371C10.7638 3.65238 10.6406 3.98316 10.2511 4.17359C9.90509 4.34328 9.63224 4.49098 9.63224 4.49098C9.63224 4.49098 9.35942 4.34328 9.01333 4.17359C8.62337 3.98316 8.5013 3.65234 8.69294 3.28371Z" fill="white"/>
<path d="M17.7787 18.0835C17.7787 18.0835 17.5504 16.2665 17.4241 16.0059C17.3112 15.7745 13.6881 13.977 12.9099 13.5254L12.8861 13.5339V12.5025C13.1767 12.1936 13.4446 11.8164 13.6637 11.3525C13.7089 11.2537 13.7412 11.1487 13.7723 11.0333C13.8181 10.8618 13.8566 10.6738 13.884 10.5261C13.8846 10.5237 13.8846 10.5225 13.8852 10.52C14.0104 10.4895 14.1239 10.4321 14.2203 10.3626C14.437 10.2051 14.5939 9.9866 14.722 9.75953C14.849 9.53125 14.943 9.28957 15.0052 9.07593C15.0522 8.91359 15.0761 8.76648 15.0766 8.63039C15.0766 8.48328 15.0473 8.34597 14.9869 8.22879C14.9418 8.14089 14.8795 8.06644 14.8118 8.00968C14.8038 8.00297 14.7953 7.99871 14.788 7.99257L14.7373 5.92593H10.0126H5.28847L5.23719 7.9932C5.17187 8.04324 5.11023 8.10672 5.06262 8.18609C4.98633 8.31121 4.94785 8.46562 4.94847 8.63043C4.94847 8.76652 4.97289 8.91363 5.02051 9.07597C5.10414 9.36164 5.24144 9.69488 5.44226 9.98175C5.54297 10.1252 5.65957 10.2577 5.80543 10.3626C5.90187 10.4322 6.01539 10.4896 6.13992 10.5201C6.14969 10.5707 6.16066 10.6263 6.17289 10.6849C6.19609 10.7972 6.22234 10.9186 6.25347 11.0334C6.28523 11.1487 6.31633 11.2537 6.36273 11.3526C6.5739 11.803 6.83332 12.1705 7.11347 12.4738V13.534L7.09027 13.5255C6.31207 13.9771 2.6884 15.7746 2.57672 16.0059C2.44976 16.2666 2.22148 18.0836 2.22148 18.0836C2.16105 18.3821 2.23062 18.6927 2.41312 18.9381C2.59562 19.1822 2.87273 19.3385 3.17668 19.3666C3.17668 19.3666 4.89605 20.0001 9.9998 20.0001C15.1042 20.0001 16.8236 19.3666 16.8236 19.3666C17.1269 19.3385 17.4046 19.1822 17.5865 18.9381C17.7689 18.6926 17.8391 18.3819 17.7787 18.0835ZM3.66922 16.5332L3.39762 16.0291L5.77738 14.7864L6.08804 15.3039L3.66922 16.5332ZM6.86441 10.8691C6.82597 10.7239 6.78871 10.5469 6.76308 10.4089C6.74965 10.34 6.73929 10.2802 6.73258 10.238C6.7289 10.2173 6.72586 10.2002 6.72402 10.1886L6.72156 10.1721L6.67211 9.86203L6.36265 9.90843L6.33398 9.91089C6.29066 9.91089 6.24242 9.89687 6.17469 9.84863C6.07398 9.77906 5.95375 9.63011 5.85609 9.45191C5.75722 9.27492 5.67664 9.06984 5.62781 8.89953C5.59301 8.7805 5.5814 8.69019 5.5814 8.63035C5.5814 8.5632 5.59363 8.53269 5.60094 8.51804L5.61863 8.49605C5.62902 8.4875 5.65039 8.47531 5.68394 8.46675C5.71691 8.4582 5.75902 8.45453 5.79746 8.45453C5.82738 8.45453 5.85363 8.45699 5.87133 8.45879L5.89023 8.46183L6.24058 8.5314C6.2473 8.54422 6.25402 8.55582 6.26133 8.56925C6.26195 8.55828 6.26379 8.54726 6.265 8.53629H6.26867V8.5009C6.31324 8.0834 6.40234 7.3339 6.46094 6.8566C7.91785 7.49015 10.0126 7.44375 10.0126 7.44375C10.0126 7.44375 12.0658 7.58961 13.5679 6.87797C13.6253 7.35586 13.7125 8.08953 13.7571 8.5009V8.53691L13.7614 8.53629C13.7626 8.54726 13.7638 8.55828 13.7644 8.56925C13.7718 8.55582 13.7784 8.54422 13.7846 8.5314L14.1361 8.46121V8.46183C14.1453 8.45937 14.1837 8.45449 14.2283 8.45449C14.2618 8.45449 14.2991 8.45754 14.3296 8.46425C14.3534 8.46914 14.3729 8.47648 14.3864 8.48257C14.4077 8.49418 14.4132 8.50027 14.4212 8.51308C14.4285 8.52652 14.4432 8.55461 14.4437 8.63027C14.4437 8.69007 14.4321 8.78043 14.398 8.89945C14.332 9.12711 14.2106 9.41398 14.0653 9.61785C13.9939 9.72039 13.917 9.80156 13.8511 9.84855C13.7827 9.89675 13.7345 9.91082 13.6912 9.91082L13.6637 9.90836L13.353 9.86195L13.3042 10.172L13.303 10.1794C13.2969 10.2172 13.267 10.3991 13.2255 10.5969C13.2041 10.6957 13.1803 10.7989 13.1559 10.8874C13.1327 10.9753 13.1059 11.0522 13.0912 11.0827C12.8636 11.5643 12.5841 11.9305 12.285 12.2131C11.8376 12.6367 11.3438 12.8735 10.9214 13.0048C10.5003 13.136 10.1481 13.1604 10.0126 13.1592C9.92289 13.1604 9.73492 13.1494 9.49687 13.1036C9.13797 13.0346 8.66375 12.8857 8.19867 12.5769C7.73359 12.2687 7.27644 11.8054 6.93465 11.0828C6.91871 11.0498 6.89004 10.9656 6.86441 10.8691ZM9.99976 18.9258C9.76844 18.9258 9.58047 18.7378 9.58047 18.5059C9.58047 18.2739 9.76847 18.0871 9.99976 18.0871C10.2323 18.0871 10.4197 18.2739 10.4197 18.5059C10.4197 18.7378 10.2323 18.9258 9.99976 18.9258ZM9.99976 16.3648C9.76844 16.3648 9.58047 16.1774 9.58047 15.9455C9.58047 15.7136 9.76847 15.5262 9.99976 15.5262C10.2323 15.5262 10.4197 15.7136 10.4197 15.9455C10.4197 16.1774 10.2323 16.3648 9.99976 16.3648ZM14.6299 18.1726H14.0665H13.8517V18.3887V18.9514L13.5697 18.6865L13.2877 18.9514V18.3887V18.1726H13.0722H12.5095L12.7744 17.8912L12.5095 17.6099H13.0722H13.2877V17.3938V16.8311L13.5697 17.096L13.8517 16.8311V17.3938V17.6099H14.0665H14.6299L14.365 17.8919L14.6299 18.1726ZM16.3309 16.5332L13.9127 15.3039L14.2234 14.7864L16.6025 16.0291L16.3309 16.5332Z" fill="white"/>
</g>
<defs>
<clipPath id="clip0_2030_308">
<rect width="20" height="20" fill="white"/>
</clipPath>
</defs>
</svg>
