<svg width="25" height="25" viewBox="0 0 25 25" fill="none" xmlns="http://www.w3.org/2000/svg">
<path d="M24.6533 13.3461H24.7386L21.3286 6.62042C20.3484 4.6882 18.3738 3.46241 16.2072 3.4422H16.1946H8.81914H8.81372C6.64756 3.46241 4.67295 4.6882 3.69272 6.62042L0.757129 12.4103L0.75752 12.4107C0.276221 13.2901 0 14.301 0 15.3738C0.000341797 18.7892 2.76821 21.5575 6.18398 21.5578C8.59023 21.5574 10.6755 20.1809 11.6958 18.1742H11.6962C11.8611 17.8835 11.9967 17.7418 12.0979 17.6755C12.1504 17.6412 12.197 17.6206 12.2588 17.6044C12.3199 17.5884 12.3977 17.5783 12.5 17.5783C12.6027 17.5783 12.6801 17.5884 12.7415 17.6044C12.8334 17.6297 12.8952 17.6608 12.9845 17.7403C13.0724 17.8199 13.1808 17.9565 13.3038 18.1735C14.3241 20.1806 16.4089 21.5575 18.816 21.5578C22.2318 21.5574 24.9997 18.7892 25 15.3738C25 14.6633 24.8753 13.9814 24.6533 13.3461ZM12.8703 4.55294H16.1971C17.9486 4.5692 19.5457 5.56027 20.3379 7.12301L21.9346 10.2723C21.0267 9.71588 19.959 9.3944 18.8161 9.39406H12.8703V4.55294ZM4.6835 7.12306C5.47568 5.56032 7.07275 4.56925 8.82427 4.55299H12.1298V9.3941H6.18398C5.05332 9.3941 3.99717 9.70978 3.09541 10.255L4.6835 7.12306ZM22.4035 18.961C21.4837 19.8801 20.2189 20.4467 18.816 20.4471C16.8327 20.4475 15.1178 19.3089 14.2825 17.6496L14.2764 17.6369L14.2691 17.6246C14.0573 17.2522 13.8255 16.9557 13.5156 16.7496C13.3623 16.6473 13.1927 16.5732 13.0203 16.5291C12.8474 16.4842 12.6735 16.4675 12.5 16.4675C12.3264 16.4675 12.1521 16.4842 11.9792 16.5291C11.7197 16.5949 11.4705 16.7315 11.2655 16.9214C11.059 17.1112 10.8902 17.3448 10.7307 17.6254L10.7234 17.6377L10.7173 17.65C9.88169 19.3089 8.16709 20.4475 6.18389 20.4471C4.78096 20.4467 3.51616 19.8802 2.59629 18.961C1.67754 18.0412 1.11094 16.7764 1.11064 15.3738C1.11064 14.4859 1.33911 13.6557 1.73867 12.9296L1.74307 12.922L2.25937 11.9038C3.2186 10.8187 4.61973 10.1346 6.18389 10.1346H18.8159C20.4104 10.1342 21.8354 10.8484 22.7964 11.9721L22.9298 12.2354H22.9001L23.32 13.046C23.6819 13.7457 23.8891 14.5339 23.8891 15.3738C23.8889 16.7763 23.3223 18.0411 22.4035 18.961Z" fill="white"/>
<path d="M6.18396 11.9645C4.30051 11.9645 2.77468 13.4907 2.77429 15.3738C2.77468 17.2573 4.30051 18.7831 6.18396 18.7835C8.06702 18.7831 9.59324 17.2573 9.59363 15.3738C9.59324 13.4907 8.06707 11.9645 6.18396 11.9645ZM8.07141 17.2612C7.58723 17.7447 6.92195 18.0426 6.18396 18.043C5.44563 18.0426 4.78069 17.7447 4.29651 17.2612C3.81311 16.7771 3.51516 16.1122 3.51477 15.3738C3.51516 14.6358 3.81311 13.9709 4.29651 13.4868C4.78069 13.003 5.44563 12.705 6.18396 12.705C6.92195 12.705 7.58723 13.003 8.07141 13.4868C8.55481 13.971 8.85276 14.6358 8.85315 15.3738C8.85276 16.1121 8.55481 16.7771 8.07141 17.2612Z" fill="white"/>
<path d="M12.5 15.9006C12.9533 15.9006 13.3208 15.5331 13.3208 15.0798C13.3208 14.6266 12.9533 14.2591 12.5 14.2591C12.0467 14.2591 11.6793 14.6266 11.6793 15.0798C11.6793 15.5331 12.0467 15.9006 12.5 15.9006Z" fill="white"/>
<path d="M18.816 11.9645C16.933 11.9645 15.4068 13.4907 15.4064 15.3738C15.4067 17.2573 16.9329 18.7831 18.816 18.7835C20.6991 18.7831 22.2253 17.2573 22.2257 15.3738C22.2253 13.4907 20.6991 11.9645 18.816 11.9645ZM20.7034 17.2612C20.2193 17.7447 19.554 18.0426 18.816 18.043C18.0781 18.0426 17.4128 17.7447 16.9286 17.2612C16.4452 16.7771 16.1472 16.1122 16.1469 15.3738C16.1472 14.6358 16.4452 13.9709 16.9286 13.4868C17.4128 13.003 18.0781 12.705 18.816 12.705C19.554 12.705 20.2193 13.003 20.7034 13.4868C21.1869 13.971 21.4848 14.6358 21.4852 15.3738C21.4848 16.1121 21.1868 16.7771 20.7034 17.2612Z" fill="white"/>
</svg>
