<svg width="20" height="20" viewBox="0 0 20 20" fill="none" xmlns="http://www.w3.org/2000/svg">
<path d="M12.6249 6.42813C12.6041 6.36571 12.5643 6.31136 12.5111 6.27269C12.4579 6.23402 12.3939 6.21298 12.3281 6.2125H10.7749L10.2968 4.7375C10.2763 4.67498 10.2365 4.62055 10.1832 4.58195C10.1299 4.54336 10.0657 4.52258 9.99994 4.52258C9.93412 4.52258 9.86999 4.54336 9.81668 4.58195C9.76337 4.62055 9.72361 4.67498 9.70306 4.7375L9.22494 6.2125H7.67181C7.60602 6.21298 7.54202 6.23402 7.48878 6.27269C7.43554 6.31136 7.39574 6.36571 7.37494 6.42813C7.35416 6.49116 7.35419 6.55919 7.37501 6.62221C7.39582 6.68522 7.43633 6.73988 7.49056 6.77813L8.74369 7.69063L8.26556 9.16563C8.24492 9.22837 8.24469 9.29604 8.2649 9.35892C8.28511 9.4218 8.32473 9.47667 8.37806 9.51563C8.43198 9.55375 8.4964 9.57422 8.56244 9.57422C8.62847 9.57422 8.69289 9.55375 8.74681 9.51563L9.99994 8.60313L11.2531 9.51563C11.3074 9.55291 11.3715 9.57354 11.4374 9.575C11.5035 9.57449 11.5679 9.55377 11.6218 9.51563C11.6751 9.47667 11.7148 9.4218 11.735 9.35892C11.7552 9.29604 11.755 9.22837 11.7343 9.16563L11.2562 7.69063L12.5093 6.77813C12.5635 6.73988 12.604 6.68522 12.6249 6.62221C12.6457 6.55919 12.6457 6.49116 12.6249 6.42813ZM10.7062 7.31875C10.6525 7.3575 10.6125 7.41219 10.5917 7.47503C10.5709 7.53788 10.5705 7.60567 10.5906 7.66876L10.8437 8.44376L10.1843 7.9625C10.1306 7.9239 10.0661 7.90313 9.99994 7.90313C9.93378 7.90313 9.86929 7.9239 9.81556 7.9625L9.15619 8.44376L9.40931 7.66876C9.42933 7.60567 9.42894 7.53788 9.40818 7.47503C9.38741 7.41219 9.34735 7.3575 9.29369 7.31875L8.63431 6.8375H9.44994C9.51594 6.83789 9.58034 6.81718 9.63374 6.77839C9.68715 6.7396 9.72676 6.68477 9.74681 6.62188L9.99994 5.84688L10.2531 6.62188C10.2731 6.68477 10.3127 6.7396 10.3661 6.77839C10.4195 6.81718 10.4839 6.83789 10.5499 6.8375H11.3656L10.7062 7.31875Z" fill="black"/>
<path d="M9.99991 3.20624C8.93306 3.20594 7.90733 3.61778 7.13691 4.35577C6.36648 5.09375 5.91092 6.10083 5.86535 7.1667C5.81978 8.23258 6.18772 9.27486 6.89234 10.0759C7.59697 10.877 8.5838 11.3748 9.64678 11.4656C9.76553 11.475 9.88116 11.4812 9.99991 11.4812C10.1062 11.4812 10.2155 11.475 10.3218 11.4656H10.353V11.4625C11.4156 11.3717 12.4021 10.874 13.1064 10.0733C13.8108 9.27251 14.1785 8.23062 14.133 7.16514C14.0874 6.09967 13.632 5.09298 12.8618 4.35529C12.0917 3.61759 11.0664 3.20593 9.99991 3.20624ZM13.0655 9.05624C13.0647 9.05624 13.0639 9.05657 13.0633 9.05715C13.0627 9.05774 13.0624 9.05853 13.0624 9.05936C12.7829 9.56033 12.3844 9.98484 11.9021 10.2955C11.4198 10.6061 10.8685 10.7933 10.2968 10.8406L10.2937 10.8437H10.2905C10.0951 10.863 9.89823 10.8619 9.70303 10.8406C8.94763 10.7762 8.23336 10.4691 7.66699 9.96512C7.10062 9.46113 6.71259 8.78737 6.5609 8.04456C6.40922 7.30175 6.50203 6.5298 6.82545 5.84411C7.14888 5.15843 7.68556 4.59584 8.35524 4.24046C9.02493 3.88507 9.79165 3.75599 10.5408 3.87251C11.2899 3.98902 11.9812 4.34487 12.5113 4.88686C13.0414 5.42885 13.3819 6.12786 13.4818 6.87938C13.5817 7.63091 13.4357 8.39459 13.0655 9.05624Z" fill="black"/>
<path d="M18.4 16.4781L17.225 14.6563C16.3844 13.3594 15.5448 12.0604 14.7062 10.7594C14.7719 10.7344 14.8469 10.7063 14.9219 10.6813C15.0912 10.6473 15.2522 10.5801 15.3954 10.4836C15.5386 10.387 15.6613 10.263 15.7562 10.1188C15.8093 9.9556 15.8298 9.78359 15.8164 9.61254C15.803 9.44149 15.756 9.27476 15.6781 9.12188C15.6047 8.96194 15.5653 8.78848 15.5625 8.6125C15.6399 8.46209 15.7473 8.32915 15.8781 8.22188C16.0172 8.11653 16.1341 7.98471 16.2221 7.83401C16.31 7.6833 16.3673 7.51669 16.3906 7.34375C16.3677 7.17116 16.3105 7.00487 16.2225 6.85463C16.1345 6.70438 16.0174 6.5732 15.8781 6.46875C15.7478 6.35978 15.6405 6.22592 15.5625 6.075C15.5653 5.89903 15.6047 5.72556 15.6781 5.56563C15.7559 5.41329 15.8029 5.24708 15.8163 5.07655C15.8297 4.90601 15.8093 4.73451 15.7562 4.57188C15.661 4.42784 15.5383 4.30401 15.3951 4.20749C15.2519 4.11097 15.0911 4.04364 14.9219 4.00938C14.7536 3.9668 14.5953 3.8914 14.4562 3.7875C14.3871 3.62848 14.3489 3.45772 14.3437 3.28438C14.3485 3.11216 14.3191 2.9407 14.2575 2.77982C14.1958 2.61895 14.103 2.47183 13.9844 2.34688C13.6857 2.17104 13.3296 2.12049 12.9937 2.20625C12.8237 2.24136 12.6482 2.24136 12.4781 2.20625C12.3472 2.0966 12.2399 1.9616 12.1625 1.80938C12.0914 1.64991 11.9894 1.50617 11.8622 1.38653C11.735 1.26689 11.5854 1.17374 11.4219 1.1125C11.2526 1.09795 11.082 1.11695 10.9201 1.16844C10.7581 1.21992 10.6079 1.30286 10.4781 1.4125C10.3362 1.52069 10.1734 1.59835 9.99999 1.64063C9.8266 1.59835 9.66382 1.52069 9.52187 1.4125C9.39251 1.3031 9.24285 1.22029 9.08144 1.16881C8.92003 1.11733 8.75006 1.09819 8.58124 1.1125C8.41707 1.1732 8.26669 1.26612 8.13896 1.3858C8.01123 1.50548 7.90873 1.6495 7.83749 1.80938C7.76001 1.96066 7.65388 2.09544 7.52499 2.20625C7.35385 2.24131 7.17738 2.24131 7.00624 2.20625C6.67145 2.12045 6.31628 2.17103 6.01874 2.34688C5.8988 2.47167 5.80495 2.61915 5.74271 2.78066C5.68046 2.94218 5.65107 3.11449 5.65624 3.2875C5.65305 3.46042 5.61367 3.63074 5.54062 3.7875C5.40438 3.89158 5.24792 3.96608 5.08124 4.00625C4.73864 4.07553 4.43747 4.27781 4.24374 4.56875C4.19064 4.7319 4.17021 4.90392 4.18362 5.07496C4.19702 5.24601 4.244 5.41274 4.32187 5.56563C4.39532 5.72556 4.4347 5.89903 4.43749 6.075C4.35949 6.22592 4.25219 6.35978 4.12187 6.46875C3.98256 6.5732 3.86548 6.70438 3.77748 6.85463C3.68948 7.00487 3.63233 7.17116 3.60937 7.34375C3.63267 7.51669 3.68995 7.6833 3.7779 7.83401C3.86586 7.98471 3.98276 8.11653 4.12187 8.22188C4.25267 8.32915 4.36009 8.46209 4.43749 8.6125C4.4347 8.78848 4.39532 8.96194 4.32187 9.12188C4.24406 9.27422 4.1971 9.44043 4.1837 9.61096C4.17029 9.7815 4.1907 9.953 4.24374 10.1156C4.33822 10.2603 4.46073 10.3847 4.60403 10.4813C4.74733 10.5779 4.90853 10.6448 5.07812 10.6781C5.14999 10.7063 5.22499 10.7313 5.29374 10.7594C4.45312 12.0594 3.61354 13.3583 2.77499 14.6563L1.59999 16.4781C1.5661 16.5292 1.54828 16.5892 1.54884 16.6505C1.5494 16.7118 1.5683 16.7715 1.60312 16.8219C1.63707 16.8723 1.68509 16.9116 1.74121 16.9349C1.79732 16.9583 1.85906 16.9646 1.91874 16.9531L4.05312 16.5563L4.57187 18.6688C4.58693 18.7278 4.61892 18.7811 4.66389 18.8222C4.70886 18.8633 4.76486 18.8903 4.82499 18.9C4.84143 18.9036 4.85817 18.9057 4.87499 18.9063C4.92736 18.9066 4.97896 18.8936 5.02489 18.8684C5.07083 18.8433 5.10958 18.8068 5.13749 18.7625L8.50624 13.5469C8.53124 13.5531 8.55312 13.5688 8.57812 13.575C8.62931 13.5872 8.68174 13.5935 8.73437 13.5938C9.02123 13.5621 9.29377 13.4518 9.52187 13.275C9.66382 13.1668 9.8266 13.0892 9.99999 13.0469C10.1734 13.0892 10.3362 13.1668 10.4781 13.275C10.608 13.3855 10.7587 13.469 10.9213 13.5205C11.0839 13.572 11.2551 13.5905 11.425 13.575C11.45 13.5688 11.4719 13.5531 11.4937 13.5469L14.8625 18.7625C14.8904 18.8068 14.9292 18.8433 14.9751 18.8684C15.021 18.8936 15.0726 18.9066 15.125 18.9063C15.1418 18.9057 15.1586 18.9036 15.175 18.9C15.2351 18.8903 15.2911 18.8633 15.3361 18.8222C15.3811 18.7811 15.4131 18.7278 15.4281 18.6688L15.9469 16.5563L18.0812 16.9531C18.1409 16.9643 18.2025 16.9578 18.2586 16.9345C18.3146 16.9112 18.3627 16.872 18.3969 16.8219C18.4317 16.7715 18.4506 16.7118 18.4511 16.6505C18.4517 16.5892 18.4339 16.5292 18.4 16.4781ZM5.00624 17.8125L4.59062 16.1219C4.57195 16.0443 4.52432 15.9768 4.45751 15.9333C4.39069 15.8897 4.30974 15.8733 4.23124 15.8875L2.51874 16.2063L3.29999 14.9969C4.08124 13.7844 4.86458 12.5719 5.64999 11.3594C5.65339 11.3737 5.65548 11.3884 5.65624 11.4031C5.65154 11.5754 5.68086 11.7468 5.74253 11.9077C5.80419 12.0686 5.897 12.2157 6.01562 12.3406C6.31436 12.5163 6.67041 12.5668 7.00624 12.4813C7.17633 12.4461 7.35179 12.4461 7.52187 12.4813C7.65351 12.5902 7.761 12.7253 7.83749 12.8781C7.89687 12.9688 7.95624 13.0594 8.01874 13.1469L5.00624 17.8125ZM11.375 12.9031C11.3497 12.9318 11.3174 12.9533 11.2812 12.9656C11.1937 12.9844 10.9625 12.8438 10.8125 12.7469C10.5775 12.5644 10.296 12.4518 9.99999 12.4219C9.70402 12.4518 9.42245 12.5644 9.18749 12.7469C9.03749 12.8438 8.80624 12.9875 8.72187 12.9688C8.68356 12.9541 8.64928 12.9305 8.62187 12.9C8.52509 12.7917 8.44023 12.6733 8.36874 12.5469C8.23943 12.2889 8.04157 12.0716 7.79687 11.9188C7.65481 11.8541 7.49975 11.8231 7.34374 11.8281C7.20784 11.8308 7.0722 11.8412 6.93749 11.8594C6.74374 11.8813 6.48124 11.9125 6.40624 11.8531C6.33124 11.7938 6.29999 11.5281 6.27812 11.3344C6.27431 11.0417 6.1888 10.756 6.03124 10.5094C6.00638 10.4782 5.97807 10.4499 5.94687 10.425C5.93494 10.4149 5.92242 10.4055 5.90937 10.3969L5.90624 10.3938H5.90312C5.71629 10.2571 5.50683 10.1545 5.28437 10.0906C5.09999 10.025 4.84999 9.9375 4.80624 9.84375C4.76249 9.75625 4.84999 9.50938 4.91249 9.32813C5.03767 9.06237 5.0843 8.76637 5.04687 8.475C4.9551 8.20131 4.78705 7.95953 4.56249 7.77813C4.42499 7.64063 4.23437 7.45 4.23437 7.34375C4.23437 7.2375 4.42499 7.04688 4.56249 6.90938C4.78705 6.72798 4.9551 6.4862 5.04687 6.2125C5.0843 5.92113 5.03767 5.62514 4.91249 5.35938C4.84999 5.17813 4.76249 4.93125 4.80624 4.84063C4.84999 4.75 5.10312 4.6625 5.28749 4.59688C5.5692 4.53064 5.82614 4.38537 6.02812 4.17813C6.18801 3.93356 6.27474 3.64843 6.27812 3.35625C6.29999 3.1625 6.32812 2.9 6.40624 2.8375C6.48437 2.775 6.74374 2.80625 6.93749 2.82813C7.22387 2.88913 7.52161 2.86856 7.79687 2.76875C8.04231 2.61677 8.24039 2.39921 8.36874 2.14063C8.47187 1.97188 8.61562 1.74375 8.71874 1.72188C8.80624 1.7 9.03749 1.84688 9.18749 1.94063C9.42245 2.12308 9.70402 2.2357 9.99999 2.26563C10.296 2.2357 10.5775 2.12308 10.8125 1.94063C10.9625 1.84688 11.1906 1.70313 11.2812 1.72188C11.3844 1.74375 11.5281 1.97188 11.6312 2.14063C11.7596 2.39921 11.9577 2.61677 12.2031 2.76875C12.4784 2.86856 12.7761 2.88913 13.0625 2.82813C13.2562 2.80625 13.5187 2.775 13.5937 2.83438C13.6687 2.89375 13.7 3.15938 13.7219 3.35313C13.7257 3.64576 13.8112 3.93151 13.9687 4.17813C14.1737 4.38536 14.4323 4.53143 14.7156 4.6C14.9 4.6625 15.15 4.75 15.1937 4.84375C15.2375 4.93125 15.15 5.17813 15.0875 5.35938C14.9623 5.62514 14.9157 5.92113 14.9531 6.2125C15.0449 6.4862 15.2129 6.72798 15.4375 6.90938C15.575 7.04688 15.7656 7.2375 15.7656 7.34375C15.7656 7.45 15.575 7.64063 15.4375 7.77813C15.2129 7.95953 15.0449 8.20131 14.9531 8.475C14.9157 8.76637 14.9623 9.06237 15.0875 9.32813C15.15 9.50938 15.2375 9.75625 15.1937 9.84688C15.15 9.9375 14.8969 10.0281 14.7156 10.0906C14.4816 10.1546 14.262 10.2628 14.0687 10.4094C14.0341 10.4404 14.0017 10.4738 13.9719 10.5094C13.812 10.7539 13.7252 11.0391 13.7219 11.3313C13.7 11.525 13.6719 11.7875 13.5937 11.85C13.5156 11.9125 13.2562 11.8813 13.0625 11.8594C12.7762 11.7968 12.4781 11.8174 12.2031 11.9188C11.9584 12.0716 11.7606 12.2889 11.6312 12.5469C11.559 12.6746 11.4731 12.794 11.375 12.9031ZM15.7687 15.8875C15.6902 15.8733 15.6093 15.8897 15.5425 15.9333C15.4757 15.9768 15.428 16.0443 15.4094 16.1219L14.9937 17.8125L11.9812 13.1469C12.0437 13.0594 12.1031 12.9688 12.1625 12.8781C12.2391 12.7263 12.3453 12.5913 12.475 12.4813C12.6461 12.4462 12.8226 12.4462 12.9937 12.4813C13.3285 12.5671 13.6837 12.5165 13.9812 12.3406C14.1009 12.2163 14.1946 12.0693 14.2568 11.9084C14.3191 11.7474 14.3486 11.5756 14.3437 11.4031C14.3443 11.3884 14.3464 11.3737 14.35 11.3594C15.1344 12.5719 15.9177 13.7844 16.7 14.9969L17.4812 16.2063L15.7687 15.8875Z" fill="black"/>
</svg>
