<svg width="20" height="20" viewBox="0 0 20 20" fill="none" xmlns="http://www.w3.org/2000/svg">
<g clip-path="url(#clip0_2015_64)">
<path d="M1.1375 5.20001C0.514062 5.20001 0 5.71407 0 6.33751V16.8C0 17.4641 0.535938 18 1.2 18H2.8375C3.02813 19.1344 4.01406 20 5.2 20C6.38594 20 7.37188 19.1344 7.5625 18H11.2625C11.5578 18 11.8219 17.875 12.025 17.6875C12.2328 17.8703 12.4984 17.9969 12.8 18H13.2375C13.4281 19.1344 14.4141 20 15.6 20C16.9203 20 18 18.9203 18 17.6C18 16.2797 16.9203 15.2 15.6 15.2C14.4141 15.2 13.4281 16.0656 13.2375 17.2H12.8C12.725 17.2 12.6109 17.1484 12.525 17.0625C12.4391 16.9766 12.4 16.8735 12.4 16.8V9.20001C12.4 9.05001 12.65 8.80001 12.8 8.80001H16C16.3141 8.80001 16.7563 9.13595 17.0625 9.50001C17.0656 9.5047 17.0719 9.50782 17.075 9.51251L17.1375 9.60001H15.2C14.5625 9.60001 14 10.1156 14 10.8V12.4C14 12.7328 14.15 13.025 14.3625 13.2375C14.575 13.45 14.8672 13.6 15.2 13.6H19.2V16.8C19.2 16.95 18.95 17.2 18.8 17.2H18V18H18.8C19.4641 18 20 17.4641 20 16.8V12.95C20 12.0344 19.3625 11.225 19.3625 11.225H19.35L17.7 9.02501V9.01251L17.6875 9.00001C17.3188 8.5547 16.7656 8.00001 16 8.00001H12.8C12.6578 8.00001 12.5266 8.0297 12.4 8.07501V6.36251C12.4 5.74845 11.9156 5.20001 11.275 5.20001H1.1375ZM1.1375 6.00001H11.275C11.4469 6.00001 11.6 6.16564 11.6 6.36251V16.8625C11.6 17.05 11.4516 17.2 11.2625 17.2H7.5625C7.37188 16.0656 6.38594 15.2 5.2 15.2C4.01406 15.2 3.02813 16.0656 2.8375 17.2H1.2C1.05 17.2 0.8 16.9485 0.8 16.8V6.33751C0.8 6.15001 0.946875 6.00001 1.1375 6.00001ZM15.2 10.4H17.7375L18.7125 11.7C18.7125 11.7 19.075 12.3203 19.15 12.8H15.2C15.1328 12.8 15.025 12.75 14.9375 12.6625C14.85 12.575 14.8 12.4672 14.8 12.4V10.8C14.8 10.5984 15.0375 10.4 15.2 10.4ZM5.2 16C6.08906 16 6.8 16.711 6.8 17.6C6.8 18.4891 6.08906 19.2 5.2 19.2C4.31094 19.2 3.6 18.4891 3.6 17.6C3.6 16.711 4.31094 16 5.2 16ZM15.6 16C16.4891 16 17.2 16.711 17.2 17.6C17.2 18.4891 16.4891 19.2 15.6 19.2C14.7109 19.2 14 18.4891 14 17.6C14 16.711 14.7109 16 15.6 16Z" fill="black"/>
</g>
<defs>
<clipPath id="clip0_2015_64">
<rect width="20" height="20" fill="white"/>
</clipPath>
</defs>
</svg>
